<mxfile host="app.diagrams.net" modified="2022-05-18T19:31:35.826Z" agent="5.0 (X11; Linux x86_64) AppleWebKit/537.36 (KHTML, like Gecko) Chrome/101.0.4951.54 Safari/537.36" etag="MBkLbkiHRqU4blrAnWxO" version="18.0.6" type="github">
  <diagram id="C5RBs43oDa-KdzZeNtuy" name="Page-1">
    <mxGraphModel dx="1207" dy="1088" grid="1" gridSize="10" guides="1" tooltips="1" connect="1" arrows="1" fold="1" page="1" pageScale="1" pageWidth="827" pageHeight="1169" math="0" shadow="0">
      <root>
        <mxCell id="WIyWlLk6GJQsqaUBKTNV-0" />
        <mxCell id="WIyWlLk6GJQsqaUBKTNV-1" parent="WIyWlLk6GJQsqaUBKTNV-0" />
        <mxCell id="HTxAucdW9il4HwQN6rw7-1" value="" style="triangle;whiteSpace=wrap;html=1;fillColor=#dae8fc;strokeColor=#6c8ebf;" vertex="1" parent="WIyWlLk6GJQsqaUBKTNV-1">
          <mxGeometry x="80" y="60" width="60" height="80" as="geometry" />
        </mxCell>
        <mxCell id="HTxAucdW9il4HwQN6rw7-2" value="Init Sytem" style="text;html=1;strokeColor=none;fillColor=none;align=center;verticalAlign=middle;whiteSpace=wrap;rounded=0;" vertex="1" parent="WIyWlLk6GJQsqaUBKTNV-1">
          <mxGeometry x="190" y="70" width="80" height="30" as="geometry" />
        </mxCell>
        <mxCell id="HTxAucdW9il4HwQN6rw7-4" value="" style="endArrow=classic;html=1;rounded=0;exitX=1;exitY=0.5;exitDx=0;exitDy=0;entryX=0.083;entryY=0.5;entryDx=0;entryDy=0;entryPerimeter=0;" edge="1" parent="WIyWlLk6GJQsqaUBKTNV-1" source="HTxAucdW9il4HwQN6rw7-1">
          <mxGeometry width="50" height="50" relative="1" as="geometry">
            <mxPoint x="280" y="230" as="sourcePoint" />
            <mxPoint x="319.9599999999999" y="100" as="targetPoint" />
          </mxGeometry>
        </mxCell>
        <mxCell id="HTxAucdW9il4HwQN6rw7-21" value="" style="edgeStyle=orthogonalEdgeStyle;rounded=0;orthogonalLoop=1;jettySize=auto;html=1;" edge="1" parent="WIyWlLk6GJQsqaUBKTNV-1" source="HTxAucdW9il4HwQN6rw7-6" target="HTxAucdW9il4HwQN6rw7-17">
          <mxGeometry relative="1" as="geometry" />
        </mxCell>
        <mxCell id="HTxAucdW9il4HwQN6rw7-6" value="Create jobs for billings" style="shape=cube;whiteSpace=wrap;html=1;boundedLbl=1;backgroundOutline=1;darkOpacity=0.05;darkOpacity2=0.1;fillColor=#dae8fc;strokeColor=#6c8ebf;" vertex="1" parent="WIyWlLk6GJQsqaUBKTNV-1">
          <mxGeometry x="520" y="60" width="160" height="80" as="geometry" />
        </mxCell>
        <mxCell id="HTxAucdW9il4HwQN6rw7-8" value="" style="edgeStyle=orthogonalEdgeStyle;rounded=0;orthogonalLoop=1;jettySize=auto;html=1;" edge="1" parent="WIyWlLk6GJQsqaUBKTNV-1" source="HTxAucdW9il4HwQN6rw7-7" target="HTxAucdW9il4HwQN6rw7-6">
          <mxGeometry relative="1" as="geometry" />
        </mxCell>
        <mxCell id="HTxAucdW9il4HwQN6rw7-11" value="" style="edgeStyle=orthogonalEdgeStyle;rounded=0;orthogonalLoop=1;jettySize=auto;html=1;" edge="1" parent="WIyWlLk6GJQsqaUBKTNV-1" source="HTxAucdW9il4HwQN6rw7-7" target="HTxAucdW9il4HwQN6rw7-10">
          <mxGeometry relative="1" as="geometry" />
        </mxCell>
        <mxCell id="HTxAucdW9il4HwQN6rw7-7" value="The jobs for billings exist?" style="rhombus;whiteSpace=wrap;html=1;fillColor=#fff2cc;strokeColor=#d6b656;" vertex="1" parent="WIyWlLk6GJQsqaUBKTNV-1">
          <mxGeometry x="320" y="50" width="100" height="100" as="geometry" />
        </mxCell>
        <mxCell id="HTxAucdW9il4HwQN6rw7-9" value="No" style="text;html=1;strokeColor=none;fillColor=none;align=center;verticalAlign=middle;whiteSpace=wrap;rounded=0;" vertex="1" parent="WIyWlLk6GJQsqaUBKTNV-1">
          <mxGeometry x="436" y="77" width="60" height="30" as="geometry" />
        </mxCell>
        <mxCell id="HTxAucdW9il4HwQN6rw7-15" value="" style="edgeStyle=orthogonalEdgeStyle;rounded=0;orthogonalLoop=1;jettySize=auto;html=1;" edge="1" parent="WIyWlLk6GJQsqaUBKTNV-1" source="HTxAucdW9il4HwQN6rw7-10" target="HTxAucdW9il4HwQN6rw7-14">
          <mxGeometry relative="1" as="geometry" />
        </mxCell>
        <mxCell id="HTxAucdW9il4HwQN6rw7-10" value="Process Jobs" style="shape=cube;whiteSpace=wrap;html=1;boundedLbl=1;backgroundOutline=1;darkOpacity=0.05;darkOpacity2=0.1;fillColor=#ffe6cc;strokeColor=#d79b00;" vertex="1" parent="WIyWlLk6GJQsqaUBKTNV-1">
          <mxGeometry x="310" y="210" width="120" height="80" as="geometry" />
        </mxCell>
        <mxCell id="HTxAucdW9il4HwQN6rw7-26" value="" style="edgeStyle=orthogonalEdgeStyle;rounded=0;orthogonalLoop=1;jettySize=auto;html=1;" edge="1" parent="WIyWlLk6GJQsqaUBKTNV-1" source="HTxAucdW9il4HwQN6rw7-14" target="HTxAucdW9il4HwQN6rw7-25">
          <mxGeometry relative="1" as="geometry" />
        </mxCell>
        <mxCell id="HTxAucdW9il4HwQN6rw7-32" value="" style="edgeStyle=orthogonalEdgeStyle;rounded=0;orthogonalLoop=1;jettySize=auto;html=1;" edge="1" parent="WIyWlLk6GJQsqaUBKTNV-1" source="HTxAucdW9il4HwQN6rw7-14" target="HTxAucdW9il4HwQN6rw7-31">
          <mxGeometry relative="1" as="geometry" />
        </mxCell>
        <mxCell id="HTxAucdW9il4HwQN6rw7-14" value="Exist any user&amp;nbsp;who has not paid?" style="rhombus;whiteSpace=wrap;html=1;fillColor=#fff2cc;strokeColor=#d6b656;" vertex="1" parent="WIyWlLk6GJQsqaUBKTNV-1">
          <mxGeometry x="315" y="370" width="110" height="90" as="geometry" />
        </mxCell>
        <mxCell id="HTxAucdW9il4HwQN6rw7-17" value="" style="triangle;whiteSpace=wrap;html=1;fillColor=#dae8fc;strokeColor=#6c8ebf;" vertex="1" parent="WIyWlLk6GJQsqaUBKTNV-1">
          <mxGeometry x="570" y="210" width="60" height="80" as="geometry" />
        </mxCell>
        <mxCell id="HTxAucdW9il4HwQN6rw7-19" value="No" style="text;html=1;strokeColor=none;fillColor=none;align=center;verticalAlign=middle;whiteSpace=wrap;rounded=0;" vertex="1" parent="WIyWlLk6GJQsqaUBKTNV-1">
          <mxGeometry x="460" y="390" width="60" height="30" as="geometry" />
        </mxCell>
        <mxCell id="HTxAucdW9il4HwQN6rw7-20" value="Parallel Execution" style="text;html=1;strokeColor=none;fillColor=none;align=center;verticalAlign=middle;whiteSpace=wrap;rounded=0;" vertex="1" parent="WIyWlLk6GJQsqaUBKTNV-1">
          <mxGeometry x="633" y="235" width="100" height="30" as="geometry" />
        </mxCell>
        <mxCell id="HTxAucdW9il4HwQN6rw7-22" value="" style="endArrow=classic;html=1;rounded=0;exitX=0;exitY=0.625;exitDx=0;exitDy=0;exitPerimeter=0;" edge="1" parent="WIyWlLk6GJQsqaUBKTNV-1" source="HTxAucdW9il4HwQN6rw7-17">
          <mxGeometry width="50" height="50" relative="1" as="geometry">
            <mxPoint x="500" y="320" as="sourcePoint" />
            <mxPoint x="440" y="260" as="targetPoint" />
          </mxGeometry>
        </mxCell>
        <mxCell id="HTxAucdW9il4HwQN6rw7-25" value="End" style="ellipse;whiteSpace=wrap;html=1;fillColor=#f8cecc;strokeColor=#b85450;" vertex="1" parent="WIyWlLk6GJQsqaUBKTNV-1">
          <mxGeometry x="570" y="385" width="70" height="60" as="geometry" />
        </mxCell>
        <mxCell id="HTxAucdW9il4HwQN6rw7-27" value="" style="endArrow=classic;html=1;rounded=0;exitX=0.441;exitY=0.005;exitDx=0;exitDy=0;exitPerimeter=0;" edge="1" parent="WIyWlLk6GJQsqaUBKTNV-1" source="HTxAucdW9il4HwQN6rw7-25" target="HTxAucdW9il4HwQN6rw7-17">
          <mxGeometry width="50" height="50" relative="1" as="geometry">
            <mxPoint x="440" y="460" as="sourcePoint" />
            <mxPoint x="490" y="410" as="targetPoint" />
          </mxGeometry>
        </mxCell>
        <mxCell id="HTxAucdW9il4HwQN6rw7-28" value="" style="triangle;whiteSpace=wrap;html=1;fillColor=#dae8fc;strokeColor=#6c8ebf;" vertex="1" parent="WIyWlLk6GJQsqaUBKTNV-1">
          <mxGeometry x="550" y="210" width="60" height="80" as="geometry" />
        </mxCell>
        <mxCell id="HTxAucdW9il4HwQN6rw7-34" value="" style="edgeStyle=orthogonalEdgeStyle;rounded=0;orthogonalLoop=1;jettySize=auto;html=1;" edge="1" parent="WIyWlLk6GJQsqaUBKTNV-1" source="HTxAucdW9il4HwQN6rw7-31" target="HTxAucdW9il4HwQN6rw7-33">
          <mxGeometry relative="1" as="geometry" />
        </mxCell>
        <mxCell id="HTxAucdW9il4HwQN6rw7-39" value="" style="edgeStyle=orthogonalEdgeStyle;rounded=0;orthogonalLoop=1;jettySize=auto;html=1;" edge="1" parent="WIyWlLk6GJQsqaUBKTNV-1" source="HTxAucdW9il4HwQN6rw7-31" target="HTxAucdW9il4HwQN6rw7-38">
          <mxGeometry relative="1" as="geometry" />
        </mxCell>
        <mxCell id="HTxAucdW9il4HwQN6rw7-31" value="Is the payment type credit card?" style="rhombus;whiteSpace=wrap;html=1;fillColor=#fff2cc;strokeColor=#d6b656;" vertex="1" parent="WIyWlLk6GJQsqaUBKTNV-1">
          <mxGeometry x="330" y="540" width="80" height="85" as="geometry" />
        </mxCell>
        <mxCell id="HTxAucdW9il4HwQN6rw7-33" value="Sends an e-mail to the financial department requesting the bank payment slip" style="shape=document;whiteSpace=wrap;html=1;boundedLbl=1;fillColor=#dae8fc;strokeColor=#6c8ebf;" vertex="1" parent="WIyWlLk6GJQsqaUBKTNV-1">
          <mxGeometry x="470" y="526.25" width="210" height="112.5" as="geometry" />
        </mxCell>
        <mxCell id="HTxAucdW9il4HwQN6rw7-35" value="" style="endArrow=classic;html=1;rounded=0;exitX=1.001;exitY=0.482;exitDx=0;exitDy=0;entryX=1;entryY=0.5;entryDx=0;entryDy=0;exitPerimeter=0;" edge="1" parent="WIyWlLk6GJQsqaUBKTNV-1" source="HTxAucdW9il4HwQN6rw7-33" target="HTxAucdW9il4HwQN6rw7-25">
          <mxGeometry width="50" height="50" relative="1" as="geometry">
            <mxPoint x="480" y="520" as="sourcePoint" />
            <mxPoint x="530" y="470" as="targetPoint" />
            <Array as="points">
              <mxPoint x="720" y="580" />
              <mxPoint x="720" y="415" />
            </Array>
          </mxGeometry>
        </mxCell>
        <mxCell id="HTxAucdW9il4HwQN6rw7-36" value="Create a service to register the charge to the credit card, the service will have 1 attempt per day, for 3 days." style="shape=parallelogram;perimeter=parallelogramPerimeter;whiteSpace=wrap;html=1;fixedSize=1;fillColor=#dae8fc;strokeColor=#6c8ebf;" vertex="1" parent="WIyWlLk6GJQsqaUBKTNV-1">
          <mxGeometry x="530" y="693.75" width="245" height="102.5" as="geometry" />
        </mxCell>
        <mxCell id="HTxAucdW9il4HwQN6rw7-40" value="" style="edgeStyle=orthogonalEdgeStyle;rounded=0;orthogonalLoop=1;jettySize=auto;html=1;" edge="1" parent="WIyWlLk6GJQsqaUBKTNV-1" source="HTxAucdW9il4HwQN6rw7-38" target="HTxAucdW9il4HwQN6rw7-36">
          <mxGeometry relative="1" as="geometry" />
        </mxCell>
        <mxCell id="HTxAucdW9il4HwQN6rw7-38" value="Is the service for registering the credit card charge already in place?" style="rhombus;whiteSpace=wrap;html=1;fillColor=#fff2cc;strokeColor=#d6b656;" vertex="1" parent="WIyWlLk6GJQsqaUBKTNV-1">
          <mxGeometry x="310" y="690" width="120" height="110" as="geometry" />
        </mxCell>
        <mxCell id="HTxAucdW9il4HwQN6rw7-41" value="No" style="text;html=1;strokeColor=none;fillColor=none;align=center;verticalAlign=middle;whiteSpace=wrap;rounded=0;" vertex="1" parent="WIyWlLk6GJQsqaUBKTNV-1">
          <mxGeometry x="450" y="720" width="60" height="30" as="geometry" />
        </mxCell>
        <mxCell id="HTxAucdW9il4HwQN6rw7-43" value="" style="endArrow=classic;html=1;rounded=0;entryX=1;entryY=0.5;entryDx=0;entryDy=0;" edge="1" parent="WIyWlLk6GJQsqaUBKTNV-1" target="HTxAucdW9il4HwQN6rw7-25">
          <mxGeometry width="50" height="50" relative="1" as="geometry">
            <mxPoint x="720" y="690" as="sourcePoint" />
            <mxPoint x="630" y="500" as="targetPoint" />
            <Array as="points">
              <mxPoint x="720" y="415" />
            </Array>
          </mxGeometry>
        </mxCell>
        <mxCell id="HTxAucdW9il4HwQN6rw7-45" value="" style="endArrow=classic;html=1;rounded=0;exitX=0.5;exitY=1;exitDx=0;exitDy=0;entryX=1;entryY=0.5;entryDx=0;entryDy=0;" edge="1" parent="WIyWlLk6GJQsqaUBKTNV-1" source="HTxAucdW9il4HwQN6rw7-38" target="HTxAucdW9il4HwQN6rw7-25">
          <mxGeometry width="50" height="50" relative="1" as="geometry">
            <mxPoint x="490" y="700" as="sourcePoint" />
            <mxPoint x="540" y="650" as="targetPoint" />
            <Array as="points">
              <mxPoint x="370" y="840" />
              <mxPoint x="800" y="840" />
              <mxPoint x="800" y="415" />
            </Array>
          </mxGeometry>
        </mxCell>
        <mxCell id="HTxAucdW9il4HwQN6rw7-46" value="Yes" style="text;whiteSpace=wrap;html=1;align=center;" vertex="1" parent="WIyWlLk6GJQsqaUBKTNV-1">
          <mxGeometry x="540" y="815" width="120" height="30" as="geometry" />
        </mxCell>
        <mxCell id="HTxAucdW9il4HwQN6rw7-47" value="No" style="text;html=1;strokeColor=none;fillColor=none;align=center;verticalAlign=middle;whiteSpace=wrap;rounded=0;" vertex="1" parent="WIyWlLk6GJQsqaUBKTNV-1">
          <mxGeometry x="410" y="560" width="60" height="30" as="geometry" />
        </mxCell>
        <mxCell id="HTxAucdW9il4HwQN6rw7-48" value="Yes" style="text;html=1;strokeColor=none;fillColor=none;align=center;verticalAlign=middle;whiteSpace=wrap;rounded=0;" vertex="1" parent="WIyWlLk6GJQsqaUBKTNV-1">
          <mxGeometry x="354" y="638.75" width="60" height="30" as="geometry" />
        </mxCell>
        <mxCell id="HTxAucdW9il4HwQN6rw7-49" value="Yes" style="text;html=1;strokeColor=none;fillColor=none;align=center;verticalAlign=middle;whiteSpace=wrap;rounded=0;" vertex="1" parent="WIyWlLk6GJQsqaUBKTNV-1">
          <mxGeometry x="354" y="480" width="60" height="30" as="geometry" />
        </mxCell>
        <mxCell id="HTxAucdW9il4HwQN6rw7-50" value="Yes" style="text;html=1;strokeColor=none;fillColor=none;align=center;verticalAlign=middle;whiteSpace=wrap;rounded=0;" vertex="1" parent="WIyWlLk6GJQsqaUBKTNV-1">
          <mxGeometry x="356" y="161" width="60" height="30" as="geometry" />
        </mxCell>
      </root>
    </mxGraphModel>
  </diagram>
</mxfile>
